<?xml version="1.0" standalone="no"?>
<!DOCTYPE svg PUBLIC "-//W3C//DTD SVG 20010904//EN"
 "http://www.w3.org/TR/2001/REC-SVG-20010904/DTD/svg10.dtd">
<svg version="1.0" xmlns="http://www.w3.org/2000/svg"
 width="2043.000000pt" height="998.000000pt" viewBox="0 0 2043.000000 998.000000"
 preserveAspectRatio="xMidYMid meet">

<g transform="translate(0.000000,998.000000) scale(0.100000,-0.100000)"
fill="#000000" stroke="none">
<path d="M13250 8725 c-166 -45 -288 -190 -334 -394 -14 -65 -16 -170 -16
-881 0 -705 2 -818 16 -886 41 -198 159 -342 320 -390 79 -24 238 -23 317 0
154 46 269 181 317 370 19 76 20 112 20 901 0 791 -1 825 -20 903 -49 198
-162 324 -335 377 -60 18 -220 18 -285 0z m227 -382 c12 -15 27 -49 33 -76 13
-64 13 -1585 0 -1645 -27 -114 -146 -143 -208 -50 l-27 42 0 826 c0 799 1 827
20 869 23 53 62 74 120 66 27 -4 47 -14 62 -32z"/>
<path d="M3913 8705 c-3 -9 -3 -40 1 -68 9 -78 45 -354 66 -512 10 -77 28
-210 39 -295 12 -85 30 -225 42 -310 11 -85 29 -220 40 -300 11 -80 26 -196
34 -258 7 -62 16 -120 19 -130 3 -9 13 -79 21 -156 9 -76 17 -141 19 -145 2
-3 9 -51 15 -106 7 -55 17 -133 23 -172 l11 -73 142 0 143 0 16 93 c19 108 42
267 61 422 7 61 18 130 23 155 6 25 13 79 17 120 4 41 13 104 20 140 7 36 16
99 20 140 4 41 13 106 21 143 8 38 14 82 14 98 0 20 4 29 13 27 7 -3 18 -52
29 -134 17 -134 44 -334 77 -564 11 -74 29 -202 41 -285 16 -113 44 -308 50
-353 0 -1 66 -1 147 0 l148 3 11 95 c7 52 22 167 34 255 27 200 54 404 74 560
8 66 19 140 24 165 6 25 13 81 17 125 4 44 13 114 20 155 7 41 16 107 20 145
3 39 12 108 20 155 7 47 16 114 20 150 4 36 13 103 20 150 7 47 16 114 20 150
3 36 12 101 20 145 7 44 16 112 20 150 3 39 9 85 12 103 l5 32 -169 0 -169 0
-12 -72 c-7 -40 -19 -138 -27 -218 -23 -228 -44 -414 -54 -482 -5 -35 -12 -99
-16 -143 -3 -44 -12 -123 -20 -175 -8 -52 -17 -142 -21 -200 -6 -97 -16 -126
-36 -114 -4 3 -8 22 -8 43 0 21 -4 61 -10 89 -5 27 -16 119 -25 203 -9 85 -18
161 -20 169 -3 8 -12 76 -21 150 -8 74 -24 207 -34 295 -11 88 -26 221 -35
295 -8 74 -17 141 -20 148 -3 9 -40 12 -135 12 -71 0 -130 -3 -130 -7 0 -5 -6
-48 -14 -98 -8 -49 -17 -126 -21 -170 -3 -44 -11 -107 -16 -139 -6 -32 -17
-116 -25 -185 -8 -69 -23 -200 -34 -291 -11 -91 -28 -241 -38 -333 -23 -201
-42 -240 -56 -117 -6 50 -38 333 -60 537 -8 72 -19 165 -25 205 -5 40 -12 105
-16 143 -3 39 -12 124 -20 190 -9 66 -19 152 -23 190 l-7 70 -163 3 c-141 2
-163 0 -169 -13z"/>
<path d="M5817 8713 c-4 -3 -7 -524 -7 -1156 l0 -1149 -79 -84 c-135 -143
-295 -349 -389 -504 -133 -217 -241 -518 -242 -671 0 -110 67 -207 159 -229
42 -10 72 -10 149 0 179 22 258 62 529 267 488 368 576 444 895 767 205 208
268 266 268 249 0 -19 6 -23 31 -23 17 0 29 -3 27 -7 -2 -5 -58 -118 -125
-253 -67 -135 -126 -265 -132 -290 -78 -348 -82 -487 -18 -573 105 -138 298
-112 568 75 l56 39 38 -25 c72 -50 151 -57 315 -31 186 31 397 117 574 236 49
33 90 58 93 55 2 -2 -3 -19 -12 -36 -9 -18 -23 -49 -30 -69 -8 -20 -49 -122
-92 -227 l-78 -192 -115 -97 c-777 -659 -1450 -1549 -1951 -2579 -48 -100
-101 -212 -117 -251 -260 -618 -312 -779 -312 -966 l0 -108 34 -35 c31 -33 38
-36 93 -36 53 0 67 5 119 39 98 63 325 310 472 511 135 184 208 303 402 645
84 149 181 320 215 380 73 129 315 559 391 695 212 380 578 1127 764 1560 91
213 79 197 206 285 221 154 339 239 398 286 33 27 63 46 66 44 4 -3 10 -23 13
-46 11 -82 99 -153 221 -180 77 -17 269 -17 361 0 111 21 305 70 365 92 70 26
228 115 300 169 42 32 56 38 58 26 2 -9 9 -16 16 -16 7 0 73 52 147 116 166
143 282 232 315 240 35 9 49 -7 34 -37 -32 -62 -210 -274 -411 -490 -116 -123
-134 -149 -130 -186 2 -23 64 -14 106 14 34 23 320 256 335 273 3 3 46 37 95
76 205 161 397 273 581 340 151 54 149 43 -25 -176 -125 -157 -153 -241 -117
-343 32 -88 94 -121 226 -122 90 0 99 2 173 38 43 21 114 68 159 103 44 36 81
64 82 62 1 -2 8 -23 15 -48 18 -63 42 -92 101 -124 73 -40 149 -55 270 -56
262 0 576 78 828 207 79 40 145 73 145 73 1 0 2 -20 2 -44 0 -76 65 -123 153
-111 179 25 344 119 611 349 l24 21 -23 -40 c-13 -22 -53 -85 -89 -140 -53
-83 -227 -356 -352 -556 -22 -35 -61 -67 -167 -139 -536 -365 -786 -581 -1105
-953 -217 -254 -297 -373 -356 -527 -70 -183 -59 -318 29 -352 77 -29 175 1
290 88 230 175 495 488 799 944 209 314 262 397 438 686 64 105 81 126 131
159 94 62 419 293 527 374 144 107 426 334 454 365 48 52 10 37 -71 -28 -109
-87 -841 -568 -846 -556 -3 8 504 812 631 1000 44 65 49 100 13 100 -18 0 -45
-23 -102 -87 -128 -144 -363 -374 -449 -439 -140 -105 -217 -145 -320 -165
-52 -9 -75 3 -75 42 0 62 120 281 261 476 71 98 90 139 78 171 -20 54 -96 4
-198 -132 -85 -113 -190 -282 -231 -372 -34 -74 -45 -80 -269 -170 -282 -114
-449 -148 -694 -142 -134 3 -157 6 -197 26 -89 44 -111 118 -65 216 36 77 129
200 199 263 128 117 321 241 426 274 85 26 194 36 215 19 35 -29 8 -110 -65
-195 -38 -44 -52 -85 -30 -85 24 0 68 31 96 67 16 21 68 84 116 140 49 56 88
107 88 113 0 14 -33 12 -55 -4 -16 -11 -23 -10 -52 10 -21 14 -56 25 -97 29
-183 20 -409 -75 -699 -294 -158 -119 -264 -238 -295 -329 -6 -18 -22 -42 -34
-52 -34 -29 -230 -148 -271 -165 -69 -29 -179 -14 -229 32 -24 22 -23 89 1
146 10 24 65 100 122 168 135 162 209 266 209 294 0 42 -32 58 -108 53 -59 -4
-89 -15 -213 -75 -164 -79 -319 -166 -462 -259 -54 -35 -100 -64 -103 -64 -3
0 13 23 35 52 42 52 105 172 116 219 5 19 0 32 -21 52 -22 22 -36 27 -76 27
-80 0 -167 -54 -385 -238 -102 -85 -126 -101 -141 -93 -15 8 -33 -1 -91 -44
-131 -99 -285 -178 -406 -208 -240 -61 -501 -73 -616 -29 -59 24 -111 70 -128
115 -9 23 -7 38 10 77 11 26 30 57 42 68 12 11 99 50 192 87 177 70 485 205
583 254 71 36 148 107 158 145 16 66 -68 83 -242 47 -344 -71 -788 -375 -865
-593 -11 -32 -33 -51 -168 -140 -143 -94 -346 -207 -356 -197 -2 2 21 69 51
149 30 80 75 201 100 269 34 93 56 137 90 179 63 78 78 109 66 138 -6 12 -21
26 -34 29 -19 7 -29 -1 -67 -46 -24 -30 -86 -94 -136 -144 -213 -209 -438
-326 -680 -356 -109 -13 -145 -9 -175 21 -27 27 -25 59 7 92 21 22 24 30 14
42 -37 45 109 157 364 282 210 102 491 208 735 277 174 49 170 48 170 69 0 25
-14 23 -235 -39 -436 -122 -775 -261 -1005 -411 -157 -102 -250 -208 -250
-284 0 -22 -11 -33 -59 -62 -81 -49 -183 -86 -255 -92 -80 -7 -117 15 -151 89
-34 71 -33 147 4 296 59 237 133 425 238 601 l39 65 77 3 c76 3 77 3 77 30 0
60 33 249 50 287 10 22 43 76 72 120 l53 80 119 0 c96 0 120 -3 126 -15 8 -14
20 -95 40 -265 5 -44 15 -115 21 -157 l11 -78 179 0 179 0 0 33 c0 17 -4 48
-10 67 -5 19 -17 90 -25 157 -8 67 -17 127 -20 135 -3 7 -12 63 -21 123 -8 61
-24 166 -34 235 -10 69 -28 188 -39 265 -11 77 -27 176 -36 220 -20 104 -42
247 -55 360 -12 108 -34 258 -49 340 -10 57 -26 164 -56 375 -7 52 -19 125
-26 163 l-12 67 -223 0 c-123 0 -225 -4 -228 -9 -3 -4 -12 -62 -20 -127 -8
-66 -17 -126 -20 -134 -3 -8 -13 -64 -22 -125 -8 -60 -24 -166 -34 -235 -43
-286 -62 -422 -78 -535 l-17 -120 -85 -43 c-47 -24 -141 -73 -210 -110 -69
-37 -131 -68 -137 -70 -10 -3 -13 153 -13 752 l0 756 -180 0 -180 0 -2 -522
-3 -523 -147 -3 -148 -3 0 526 0 525 -178 0 c-98 0 -182 -3 -185 -7z m1918
-898 c9 -71 20 -154 24 -183 6 -48 5 -53 -13 -57 -46 -9 -106 -13 -106 -7 1
10 29 216 40 297 19 138 33 126 55 -50z m48 -367 c3 -24 12 -92 20 -153 8 -60
17 -134 20 -162 l4 -53 -41 0 c-23 0 -78 3 -123 7 l-83 6 0 36 c0 20 6 70 14
111 8 41 17 110 21 153 7 76 8 77 39 86 17 5 52 10 77 10 l47 1 5 -42z m-524
-160 c0 -18 -4 -55 -10 -83 -5 -27 -16 -95 -23 -150 -8 -55 -19 -120 -25 -145
-5 -25 -12 -76 -16 -115 -4 -38 -13 -99 -20 -135 -7 -36 -16 -96 -20 -135 -4
-38 -12 -79 -18 -89 -14 -28 -421 -465 -530 -569 -183 -175 -560 -480 -732
-592 -135 -89 -214 -123 -343 -151 -98 -20 -132 -18 -180 13 -85 55 -86 118
-4 353 75 218 226 482 389 680 l78 95 3 -42 3 -43 185 0 184 0 0 215 0 216 37
32 c65 57 245 197 254 197 5 0 9 -148 9 -330 l0 -330 180 0 180 0 0 453 c0
420 1 455 18 469 32 29 367 215 390 217 7 1 12 -11 11 -31z m-779 -158 l0
-149 -97 -72 c-54 -40 -122 -92 -150 -117 l-53 -44 0 266 0 266 150 0 150 0 0
-150z m3504 -1259 c18 -7 16 -10 -15 -34 -52 -40 -330 -168 -584 -270 -60 -25
-112 -43 -113 -42 -6 6 78 78 142 123 155 110 323 182 521 225 28 6 28 6 49
-2z m-1800 -1263 c-20 -40 -72 -147 -114 -238 -212 -451 -647 -1354 -753
-1560 -77 -152 -208 -390 -251 -459 -14 -22 -26 -43 -26 -46 0 -9 -179 -294
-282 -448 -234 -353 -582 -783 -670 -828 -73 -38 -131 -19 -144 47 -17 87 104
517 227 801 21 50 39 94 39 98 0 3 49 104 108 223 221 441 454 821 827 1347
245 345 388 512 651 761 311 295 419 393 422 385 2 -5 -14 -42 -34 -83z m5151
-243 c-257 -413 -528 -807 -682 -991 -187 -224 -436 -444 -519 -460 -24 -4
-42 -1 -59 10 -22 15 -25 23 -25 82 0 119 52 235 191 426 248 341 453 554 744
773 158 118 413 295 426 295 4 0 -30 -61 -76 -135z"/>
<path d="M8360 8525 l0 -195 175 0 175 0 0 -1075 0 -1075 185 0 185 0 0 1075
0 1075 175 0 175 0 -2 193 -3 192 -532 3 -533 2 0 -195z"/>
<path d="M10523 8678 c-7 -24 -15 -70 -18 -103 -4 -33 -12 -89 -20 -125 -7
-36 -16 -96 -20 -135 -4 -38 -13 -99 -20 -135 -7 -36 -16 -96 -20 -135 -4 -38
-13 -99 -20 -135 -7 -36 -16 -96 -20 -135 -4 -38 -11 -90 -17 -115 -5 -25 -15
-90 -23 -145 -8 -55 -23 -161 -35 -235 -12 -74 -30 -193 -41 -265 -63 -424
-97 -648 -109 -720 -5 -27 -9 -65 -9 -82 l-1 -33 179 0 179 0 5 48 c13 113 53
400 63 450 4 22 6 22 173 22 123 0 171 -3 179 -12 5 -7 12 -31 15 -53 26 -196
50 -377 54 -412 l5 -43 180 0 180 0 -7 78 c-4 42 -10 82 -15 87 -4 6 -11 44
-14 85 -4 41 -14 104 -21 140 -7 36 -16 97 -20 135 -4 39 -13 99 -20 135 -7
36 -16 94 -20 130 -3 36 -13 101 -20 145 -15 80 -33 206 -61 405 -8 57 -16
111 -19 120 -2 8 -12 65 -20 125 -17 112 -39 266 -75 500 -11 72 -28 191 -39
265 -11 74 -23 147 -27 163 l-6 27 -222 0 -222 0 -11 -42z m252 -790 c3 -35
12 -99 20 -143 7 -44 17 -114 20 -155 4 -41 11 -97 16 -125 6 -27 16 -104 24
-170 7 -66 17 -139 21 -162 l7 -43 -128 0 -127 0 5 43 c3 23 15 116 27 207 12
91 30 228 40 305 23 175 39 286 45 303 10 28 23 0 30 -60z"/>
<path d="M11607 8713 c-4 -3 -7 -575 -7 -1270 l0 -1264 288 3 c271 3 291 5
356 27 63 22 86 33 171 85 80 49 171 213 202 366 20 95 28 339 14 405 -29 136
-35 161 -42 175 -5 8 -23 46 -41 85 -30 65 -108 159 -150 181 -14 8 -9 17 35
64 72 76 120 151 153 235 28 72 28 400 1 490 -41 132 -70 187 -132 249 -72 72
-77 75 -136 104 -54 26 -160 50 -279 62 -101 10 -424 13 -433 3z m472 -379
c71 -21 122 -72 150 -150 29 -82 30 -262 1 -346 -33 -99 -99 -155 -197 -165
l-53 -6 0 342 0 341 23 0 c13 0 47 -7 76 -16z m47 -1035 c86 -52 124 -161 124
-359 0 -172 -31 -287 -90 -338 -31 -27 -96 -52 -137 -52 l-43 0 0 390 0 390
58 -6 c31 -4 71 -15 88 -25z"/>
<path d="M14212 7642 c2 -769 6 -1083 14 -1093 6 -8 16 -35 23 -61 24 -99 128
-237 204 -271 15 -6 27 -15 27 -18 0 -10 110 -37 180 -44 198 -20 389 81 469
248 72 150 66 44 69 1240 l3 1077 -186 0 -185 0 0 -1039 c0 -1033 0 -1039 -21
-1089 -17 -41 -28 -53 -59 -66 -31 -12 -46 -13 -72 -4 -49 16 -66 35 -83 93
-13 46 -15 186 -15 1079 l0 1026 -185 0 -186 0 3 -1078z"/>
<path d="M15414 8707 c-2 -7 -3 -94 -2 -192 l3 -180 178 -3 177 -2 0 -1075 0
-1075 180 0 180 0 0 1075 0 1075 178 2 177 3 0 190 0 190 -533 3 c-428 2 -534
0 -538 -11z"/>
</g>
</svg>
